# xmcd
#
# Track frame offsets:
#	150
#	14282
#	26746
#	38641
#	51308
#	65728
#	78270
#	91123
#	104278
#	116188
#	130812
#	141677
#	155649
#	167748
#	181207
#	193584
#	205528
#	232609
#
# Disc length: 3313 seconds
#
# Revision: 0
# Processed by: cddbd v1.4b42PL0 Copyright (c) Steve Scherf et al.
# Submitted via: audiograbber 1.80
#
DISCID=f00cef12
DTITLE=Various Artist - Harlem Swing CD 2
DYEAR=1900
DGENRE=
TTITLE0=Erskine Hawkins and His Orchestra - GOOD DIP
TTITLE1=Earl Hines and His Orchestra - NUMBER 19
TTITLE2=Count Basie and His Orchestra - SEVENTH AVENUE EXPRESS
TTITLE3=Duke Ellington and His Orchestra - MAIN STEM
TTITLE4=Lionel Hampton and His Orchestra - FLYING HOME
TTITLE5=Chick Webb and His Orchestra - LIZA
TTITLE6=Fletcher Henderson and His Orchestra - HOTTER THAN ELL
TTITLE7=& His Clouds Of Joy - LOTTA SAX APPEAL
TTITLE8=Red Norvo and His Orchestra - DAYDREAMING
TTITLE9=Count Basie and His Orchestra - LOVE JUMPED OUT
TTITLE10=Duke Ellington and His Orchestra - SQUATY ROO
TTITLE11=Chick Webb and His Orchestra - SPINNIN THE WEB
TTITLE12=Cab Calloway and His Orchestra - PLUCKIN' THE BASS
TTITLE13=Louis Armstrong and His Orchestra - LEAP FROG
TTITLE14=Earl Hines and His Orchestra - COMIN' HOME
TTITLE15=Benny Carter and His Orchestra - FOREVER BLUE
TTITLE16=Lionel Hampton and His Orchestra - AIR MAIN SPECIAL
TTITLE17=Erskine Hawkins and His Orchestra - HOLIDAY FOR SWING
EXTD=
EXTT0=
EXTT1=
EXTT2=
EXTT3=
EXTT4=
EXTT5=
EXTT6=
EXTT7=
EXTT8=
EXTT9=
EXTT10=
EXTT11=
EXTT12=
EXTT13=
EXTT14=
EXTT15=
EXTT16=
EXTT17=
PLAYORDER=
